<?xml version="1.0" encoding="utf-8"?>
<!-- Generator: Adobe Illustrator 16.0.0, SVG Export Plug-In . SVG Version: 6.00 Build 0)  -->
<!DOCTYPE svg PUBLIC "-//W3C//DTD SVG 1.1//EN" "http://www.w3.org/Graphics/SVG/1.1/DTD/svg11.dtd">
<svg version="1.1" id="圖層_1" xmlns="http://www.w3.org/2000/svg" xmlns:xlink="http://www.w3.org/1999/xlink" x="0px" y="0px"
	 width="344px" height="373px" viewBox="0 0 344 373" enable-background="new 0 0 344 373" xml:space="preserve">
<g>
	
		<path fill-rule="evenodd" clip-rule="evenodd" fill="none" stroke="#000000" stroke-width="9" stroke-linecap="round" stroke-linejoin="round" stroke-miterlimit="10" d="
		M222.972,331.502c0-14.994,0-29.992,0-47.336c21.57,0,40.73,0,61.041,0c0-28.18,0-53.953,0-79.727
		c12.127-1.939,23.042-3.684,38.722-6.189c-21.988-38.21-39.717-75.082-63.153-107.863c-19.922-27.873-50.779-41.531-86.438-40.406"
		/>
	
		<path fill-rule="evenodd" clip-rule="evenodd" fill="none" stroke="#000000" stroke-width="9" stroke-linecap="round" stroke-linejoin="round" stroke-miterlimit="10" d="
		M50.412,153.914c1.084,1.952,3.896,1.015,5.771,1.015c54.381,0,107.822,0.938,161.803-0.312"/>
	
		<path fill-rule="evenodd" clip-rule="evenodd" fill="none" stroke="#000000" stroke-width="9" stroke-linecap="round" stroke-linejoin="round" stroke-miterlimit="10" d="
		M83.459,266.725"/>
	
		<path fill-rule="evenodd" clip-rule="evenodd" fill="none" stroke="#000000" stroke-width="9" stroke-linecap="round" stroke-linejoin="round" stroke-miterlimit="10" d="
		M80.967,264.234"/>
	
		<path fill-rule="evenodd" clip-rule="evenodd" fill="none" stroke="#000000" stroke-width="9" stroke-linecap="round" stroke-linejoin="round" stroke-miterlimit="10" d="
		M85.934,267.783c31.57,0.123,63.132,0.254,94.704,0.373"/>
	
		<path fill-rule="evenodd" clip-rule="evenodd" fill="none" stroke="#000000" stroke-width="9" stroke-linecap="round" stroke-linejoin="round" stroke-miterlimit="10" d="
		M118.337,159.601c0,9.965,0,19.931,0,29.897"/>
</g>
<ellipse fill-rule="evenodd" clip-rule="evenodd" fill="none" stroke="#000000" stroke-width="9" stroke-linecap="round" stroke-linejoin="round" stroke-miterlimit="10" cx="50.413" cy="107.282" rx="18.27" ry="19.932"/>
<path fill-rule="evenodd" clip-rule="evenodd" fill="none" stroke="#000000" stroke-width="9" stroke-linecap="round" stroke-linejoin="round" stroke-miterlimit="10" d="
	M136.655,214.398c0,11.006-8.186,19.934-18.276,19.934c-10.09,0-18.269-8.928-18.269-19.934c0-11.004,8.179-19.93,18.269-19.93
	C128.47,194.469,136.655,203.395,136.655,214.398z"/>
<line fill="none" stroke="#000000" stroke-width="9" stroke-linecap="round" stroke-linejoin="round" stroke-miterlimit="10" x1="151.245" y1="269.215" x2="151.245" y2="314.076"/>
<line fill="none" stroke="#000000" stroke-width="9" stroke-linecap="round" stroke-linejoin="round" stroke-miterlimit="10" x1="173.144" y1="107.282" x2="118.337" y2="107.282"/>
<line fill="none" stroke="#000000" stroke-width="9" stroke-linecap="round" stroke-linejoin="round" stroke-miterlimit="10" x1="118.337" y1="107.282" x2="118.337" y2="69.925"/>
<path fill-rule="evenodd" clip-rule="evenodd" fill="none" stroke="#000000" stroke-width="9" stroke-linecap="round" stroke-linejoin="round" stroke-miterlimit="10" d="
	M136.608,49.919c0,11.005-8.184,19.93-18.276,19.93c-10.086,0-18.266-8.925-18.266-19.93c0-11.006,8.18-19.932,18.266-19.932
	C128.425,29.987,136.608,38.913,136.608,49.919z"/>
<path fill-rule="evenodd" clip-rule="evenodd" fill="none" stroke="#000000" stroke-width="9" stroke-linecap="round" stroke-linejoin="round" stroke-miterlimit="10" d="
	M169.516,334.008c0,11.002-8.185,19.93-18.276,19.93c-10.086,0-18.266-8.928-18.266-19.93c0-11.006,8.18-19.932,18.266-19.932
	C161.331,314.076,169.516,323.002,169.516,334.008z"/>
<path fill-rule="evenodd" clip-rule="evenodd" fill="none" stroke="#000000" stroke-width="9" stroke-linecap="round" stroke-linejoin="round" stroke-miterlimit="10" d="
	M83.488,269.219c0,11.004-8.186,19.93-18.275,19.93c-10.086,0-18.267-8.926-18.267-19.93c0-11.006,8.181-19.934,18.267-19.934
	C75.303,249.285,83.488,258.213,83.488,269.219z"/>
<line fill="none" stroke="#000000" stroke-width="9" stroke-linecap="round" stroke-linejoin="round" stroke-miterlimit="10" x1="50.412" y1="153.914" x2="50.412" y2="127.214"/>
</svg>
